<svg xmlns="http://www.w3.org/2000/svg" version="1.1" xmlns:xlink="http://www.w3.org/1999/xlink" width="512" height="512"><svg width="512" height="512" viewBox="0 0 512 512" fill="none" xmlns="http://www.w3.org/2000/svg">
<path d="M124.114 254.798C126.729 241.352 199.115 215.535 260.5 195.941C261.115 195.711 261.731 195.326 262.038 194.712L273.808 175.733C275.269 173.351 273.269 170.354 270.654 171.123C232.73 182.11 60.2673 232.746 56.1134 253.646C51.8057 275.544 171.576 305.511 188.268 309.583C189.422 309.89 190.653 309.353 191.268 308.277L197.422 298.442C198.499 296.751 197.73 294.446 195.807 293.832C159.653 282.383 121.576 267.246 124.037 254.721L124.114 254.798Z" fill="#FFC233"></path>
<path d="M387.963 256.352C385.348 269.803 312.962 295.628 251.577 315.228C250.962 315.458 250.423 315.843 250.039 316.458L238.193 335.519C236.731 337.825 238.731 340.823 241.27 340.131C279.039 329.294 451.733 278.488 455.887 257.582C460.195 235.677 340.27 205.624 323.732 201.627C322.578 201.32 321.424 201.858 320.732 202.934L314.578 212.849C313.501 214.54 314.27 216.769 316.116 217.384C352.271 228.836 390.348 243.978 387.886 256.506L387.963 256.352Z" fill="#F5F5F5"></path>
</svg><style>@media (prefers-color-scheme: light) { :root { filter: none; } }
@media (prefers-color-scheme: dark) { :root { filter: none; } }
</style></svg>